HIERARCHY
ROOT root
{
	OFFSET 0.000000 0.000000 0.000000
	CHANNELS 6 Xposition Yposition Zposition Zrotation Yrotation Xrotation
	JOINT lhip
	{
		OFFSET 0.058581 -0.082280 -0.017664
		CHANNELS 3 Zrotation Yrotation Xrotation
		JOINT lknee
		{
			OFFSET 0.043451 -0.386469 0.008037
			CHANNELS 3 Zrotation Yrotation Xrotation
			JOINT lankle
			{
				OFFSET -0.014790 -0.426874 -0.037428
				CHANNELS 3 Zrotation Yrotation Xrotation
				JOINT ltoe
				{
					OFFSET 0.041054 -0.060286 0.122042
					CHANNELS 3 Zrotation Yrotation Xrotation
					End Site
					{
						OFFSET 0.000000 0.000000 0.000000
					}
				}
			}
		}
	}
	JOINT rhip
	{
		OFFSET -0.060310 -0.090513 -0.013543
		CHANNELS 3 Zrotation Yrotation Xrotation
		JOINT rknee
		{
			OFFSET -0.043257 -0.383688 -0.004843
			CHANNELS 3 Zrotation Yrotation Xrotation
			JOINT rankle
			{
				OFFSET 0.019056 -0.420046 -0.034562
				CHANNELS 3 Zrotation Yrotation Xrotation
				JOINT rtoe
				{
					OFFSET -0.034840 -0.062106 0.130323
					CHANNELS 3 Zrotation Yrotation Xrotation
					End Site
					{
						OFFSET 0.000000 0.000000 0.000000
					}
				}
			}
		}
	}
	JOINT lowerback
	{
		OFFSET 0.004439 0.124404 -0.038385
		CHANNELS 3 Zrotation Yrotation Xrotation
		JOINT upperback
		{
			OFFSET 0.004488 0.137956 0.026820
			CHANNELS 3 Zrotation Yrotation Xrotation
			JOINT chest
			{
				OFFSET -0.002265 0.056032 0.002855
				CHANNELS 3 Zrotation Yrotation Xrotation
				JOINT lowerneck
				{
					OFFSET -0.013390 0.211636 -0.033468
					CHANNELS 3 Zrotation Yrotation Xrotation
					JOINT upperneck
					{
						OFFSET 0.010113 0.088937 0.050410
						CHANNELS 3 Zrotation Yrotation Xrotation
						End Site
						{
							OFFSET 0.000000 0.000000 0.000000
						}
					}
				}
				JOINT lclavicle
				{
					OFFSET 0.071702 0.114000 -0.018898
					CHANNELS 3 Zrotation Yrotation Xrotation
					JOINT lshoulder
					{
						OFFSET 0.122921 0.045205 -0.019046
						CHANNELS 3 Zrotation Yrotation Xrotation
						JOINT lelbow
						{
							OFFSET 0.255332 -0.015649 -0.022946
							CHANNELS 3 Zrotation Yrotation Xrotation
							JOINT lwrist
							{
								OFFSET 0.265709 0.012698 -0.007375
								CHANNELS 3 Zrotation Yrotation Xrotation
								End Site
								{
									OFFSET 0.000000 0.000000 0.000000
								}
							}
						}
					}
				}
				JOINT rclavicle
				{
					OFFSET -0.082954 0.112472 -0.023707
					CHANNELS 3 Zrotation Yrotation Xrotation
					JOINT rshoulder
					{
						OFFSET -0.113228 0.046853 -0.008472
						CHANNELS 3 Zrotation Yrotation Xrotation
						JOINT relbow
						{
							OFFSET -0.260127 -0.014369 -0.031269
							CHANNELS 3 Zrotation Yrotation Xrotation
							JOINT rwrist
							{
								OFFSET -0.269108 0.006794 -0.006027
								CHANNELS 3 Zrotation Yrotation Xrotation
								End Site
								{
									OFFSET 0.000000 0.000000 0.000000
								}
							}
						}
					}
				}
			}
		}
	}
}
MOTION
Frames: 8
Frame Time: 0.033333
0.262649 0.619314 1.069986 -40.310750 -9.396176 98.099203 6.110978 5.808301 -0.083180 -0.188549 -5.435485 6.575711 -13.251431 13.152819 35.802918 0.000000 -0.000000 0.000000 -15.851608 -10.207561 -17.938963 1.452997 -1.340788 10.365582 11.063461 -2.053806 26.115879 0.000000 -0.000000 0.000000 8.017261 2.598000 15.661507 8.123021 1.963051 -3.175884 8.898316 5.420685 -8.143596 -10.605986 -3.313637 -17.347044 6.188991 -1.981305 -17.575993 17.255201 -12.939150 -15.626442 -5.593077 -15.557859 -15.546011 87.038774 -52.599599 -62.250764 39.903886 -11.914353 9.691463 4.994209 25.321945 -4.046029 33.254429 13.127334 -13.794282 -18.854088 8.814916 -43.616860 -3.924351 1.627108 -25.998712 
0.252146 0.620049 1.069656 -39.139171 -9.510319 97.645079 7.035354 5.717591 0.042612 -0.056486 -6.698203 6.231319 -14.215881 13.245064 37.539388 0.000000 -0.000000 0.000000 -15.838746 -10.077612 -16.490852 1.863522 -0.971543 10.100680 10.532113 -1.905323 25.063467 0.000000 -0.000000 0.000000 7.770560 2.756469 15.245377 8.184666 1.515471 -2.714349 8.909532 5.315580 -8.319773 -10.909539 -3.664211 -17.729641 6.289846 -3.076161 -17.463551 17.853377 -13.717664 -16.615991 -4.434381 -16.441280 -15.819549 83.387329 -52.410181 -59.033373 38.696178 -11.585966 11.182346 4.848145 25.339555 -4.275775 32.736728 12.012131 -14.223271 -18.206518 7.889843 -43.592816 -3.556269 1.178743 -25.866924 
0.242566 0.621126 1.066793 -38.003158 -9.602869 97.123515 7.830561 5.404499 -0.205675 -0.124721 -8.014369 6.930985 -14.646126 13.359977 38.677288 0.000000 -0.000000 0.000000 -15.704674 -9.961649 -15.336571 2.157009 -0.595271 10.623233 9.895856 -1.756645 23.030897 0.000000 -0.000000 0.000000 7.338586 3.030613 14.937514 8.346957 1.150161 -2.308568 8.952799 5.303325 -8.430127 -10.935308 -3.882259 -18.256257 6.704127 -4.199584 -17.275631 18.377099 -14.583079 -17.565290 -3.149411 -17.427001 -15.910146 79.711673 -52.177107 -56.311812 37.790482 -11.273167 11.192966 4.767020 25.387422 -4.770855 32.295366 10.403166 -14.251025 -17.763684 7.147977 -43.818836 -3.331348 0.959755 -26.037427 
0.233414 0.622802 1.063453 -37.310486 -9.540346 96.785348 8.434469 4.885152 -0.418419 0.035713 -8.541454 7.828086 -14.677767 13.895268 39.225695 0.000000 -0.000000 0.000000 -15.273534 -9.733392 -14.529351 2.401617 -0.411025 11.159946 8.962381 -1.712510 20.733526 0.000000 -0.000000 0.000000 6.854485 3.370035 14.571556 8.648504 0.817341 -1.917952 9.036159 5.182909 -8.499074 -10.735809 -3.683623 -18.375206 6.652624 -4.974279 -17.483861 18.803818 -14.945143 -18.074951 -2.247066 -17.997882 -15.923507 76.963774 -52.206616 -54.144629 37.183102 -10.840566 11.159626 5.200742 25.298815 -4.741016 31.845037 9.601468 -14.229140 -17.588493 6.643627 -44.154463 -3.519060 0.813018 -26.540312 
0.225281 0.624286 1.060679 -37.483315 -9.273139 96.735316 8.943741 4.728797 -0.195833 0.048669 -9.161605 8.307272 -14.464717 13.701191 38.617379 0.000000 -0.000000 0.000000 -14.604914 -9.382023 -14.320246 2.731086 -0.057900 11.716051 8.354503 -1.567418 18.886391 0.000000 -0.000000 0.000000 6.568165 3.556389 14.347863 8.878156 0.890743 -1.572979 9.057894 5.222679 -8.456183 -10.331074 -3.372604 -18.639953 6.389603 -5.550415 -17.834282 18.854375 -14.772993 -18.330262 -1.693352 -18.247487 -15.913371 75.675791 -52.469358 -53.035485 36.309138 -10.481415 10.825617 5.720191 25.063225 -4.809134 31.637074 9.337293 -14.349243 -17.550415 6.278378 -44.206886 -3.059221 0.894281 -26.636739 
0.218773 0.625733 1.058405 -37.782286 -8.812121 97.095590 9.315453 4.482613 -0.375703 0.456944 -9.047006 8.572557 -13.799499 14.134629 38.065419 0.000000 -0.000000 0.000000 -13.765214 -8.876556 -14.536314 2.877236 0.091188 11.972038 7.926773 -1.422662 17.658022 0.000000 -0.000000 0.000000 6.694679 3.386332 13.941052 8.961114 0.907688 -1.402990 8.976626 5.392546 -8.519870 -10.464210 -3.449845 -18.424902 6.683306 -5.775703 -18.660319 18.958388 -14.694787 -18.652590 -1.648299 -18.064425 -15.742098 74.842615 -52.933732 -52.146578 35.632530 -10.283558 11.380243 6.071633 25.115394 -4.489047 31.931858 9.048823 -14.571358 -17.550254 6.315994 -44.211882 -2.930559 0.772370 -26.641531 
0.212006 0.626442 1.056918 -38.222049 -8.670114 97.097256 9.396271 4.390631 0.192962 0.649591 -9.011258 8.379449 -13.643077 14.397715 37.559776 0.000000 -0.000000 0.000000 -13.420309 -8.355308 -14.070531 2.928307 0.227725 11.861864 8.212472 -1.237059 16.717826 0.000000 -0.000000 0.000000 6.312064 3.364892 13.813125 9.153930 0.845760 -0.992531 9.196843 5.461972 -8.560713 -9.946309 -3.823083 -18.766973 6.870883 -6.371102 -19.162653 18.709729 -14.444147 -18.756143 -1.918460 -18.325540 -15.641386 75.095279 -52.803973 -52.150613 35.437826 -10.021130 11.626049 6.213081 25.031856 -4.408108 32.572385 9.020869 -14.287658 -17.637863 6.229177 -44.341312 -3.031588 0.779313 -26.980571 
0.206348 0.627322 1.055210 -38.158221 -8.861355 97.065071 9.322536 4.293896 0.453586 0.962368 -8.161776 8.156592 -13.382493 15.107645 37.716539 0.000000 -0.000000 0.000000 -13.444481 -8.252994 -13.566592 3.057383 -0.035557 11.739722 8.236679 -0.926932 15.616466 0.000000 -0.000000 0.000000 5.904243 3.381302 13.612572 9.214678 0.376363 -0.639926 9.074699 5.344496 -8.577127 -9.815144 -3.307260 -19.032000 7.218144 -6.939006 -20.163375 19.035268 -14.355378 -18.909177 -1.950986 -18.593849 -15.690206 74.803363 -52.447073 -52.147852 35.667854 -9.667020 11.556611 6.903557 24.841247 -4.219379 33.013130 9.184034 -14.003594 -17.907049 6.219553 -44.363053 -2.936831 0.627481 -26.862213 
